# xmcd
#
# Track frame offsets:
#	150
#	15614
#	29681
#	46309
#	61574
#	74318
#	90845
#	103120
#	119076
#	134230
#
# Disc length: 1969 seconds
# Revision: 0
# Processed by: cddbd v1.5.2PL0 Copyright (c) Steve Scherf et al.
# Submitted via: dBpowerAMP V12.0
#
DISCID=8907af0a
DTITLE=Barry Muir - The Wild And Beautiful
DYEAR=2019
DGENRE=Canadian
TTITLE0=Bending The Strings
TTITLE1=Wild And Beautiful
TTITLE2=Show Me
TTITLE3=Me Around You
TTITLE4=Evangeline
TTITLE5=Higher
TTITLE6=Ocean Blue
TTITLE7=Get You To Love Me
TTITLE8=Angel Wings
TTITLE9=Across The Border
EXTD=
EXTT0=
EXTT1=
EXTT2=
EXTT3=
EXTT4=
EXTT5=
EXTT6=
EXTT7=
EXTT8=
EXTT9=
PLAYORDER=
